HIERARCHY
ROOT Hips
{
  OFFSET 40.9192 92.6879 18.85
  CHANNELS 6 Xposition Yposition Zposition Zrotation Xrotation Yrotation
  JOINT LeftUpLeg
  {
    OFFSET 8.64259 1.95398 -2.38835
    CHANNELS 3 Zrotation Xrotation Yrotation
    JOINT LeftLeg
    {
      OFFSET 43.7702 0 0
      CHANNELS 3 Zrotation Xrotation Yrotation
      JOINT LeftFoot
      {
        OFFSET 40.6238 0 0
        CHANNELS 3 Zrotation Xrotation Yrotation
        JOINT LeftToeBase
        {
          OFFSET 12.7242 0 0
          CHANNELS 3 Zrotation Xrotation Yrotation
          End Site
          {
            OFFSET 0 0 0
          }
        }
      }
    }
  }
  JOINT RightUpLeg
  {
    OFFSET -8.2249 1.95398 -2.59336
    CHANNELS 3 Zrotation Xrotation Yrotation
    JOINT RightLeg
    {
      OFFSET 43.5653 0 0
      CHANNELS 3 Zrotation Xrotation Yrotation
      JOINT RightFoot
      {
        OFFSET 40.6238 0 0
        CHANNELS 3 Zrotation Xrotation Yrotation
        JOINT RightToeBase
        {
          OFFSET 12.7242 0 0
          CHANNELS 3 Zrotation Xrotation Yrotation
          End Site
          {
            OFFSET 0 0 0
          }
        }
      }
    }
  }
  JOINT Spine
  {
    OFFSET 0.165834 0.87714 6.61349
    CHANNELS 3 Zrotation Xrotation Yrotation
    JOINT Spine1
    {
      OFFSET 7.38963 1.71661e-005 0
      CHANNELS 3 Zrotation Xrotation Yrotation
      JOINT Spine2
      {
        OFFSET 11.9445 1.14441e-005 0
        CHANNELS 3 Zrotation Xrotation Yrotation
        JOINT Spine3
        {
          OFFSET 14.7254 4.19617e-005 0
          CHANNELS 3 Zrotation Xrotation Yrotation
          JOINT Spine4
          {
            OFFSET 10.9679 0 0
            CHANNELS 3 Zrotation Xrotation Yrotation
            JOINT RightShoulder
            {
              OFFSET 2.46616 -1.6653 3.69651
              CHANNELS 3 Zrotation Xrotation Yrotation
              JOINT RightArm
              {
                OFFSET 13.0012 0 0
                CHANNELS 3 Zrotation Xrotation Yrotation
                JOINT RightForeArm
                {
                  OFFSET 28.7848 1.52588e-005 0
                  CHANNELS 3 Zrotation Xrotation Yrotation
                  JOINT RightHand
                  {
                    OFFSET 26.5688 1.52588e-005 0
                    CHANNELS 3 Zrotation Xrotation Yrotation
                    End Site
                    {
                      OFFSET 0 0 0
                    }
                  }
                }
              }
            }
            JOINT LeftShoulder
            {
              OFFSET 2.38034 -1.29275 -3.7523
              CHANNELS 3 Zrotation Xrotation Yrotation
              JOINT LeftArm
              {
                OFFSET 16.3182 6.10351e-005 0
                CHANNELS 3 Zrotation Xrotation Yrotation
                JOINT LeftForeArm
                {
                  OFFSET 27.0901 0 0
                  CHANNELS 3 Zrotation Xrotation Yrotation
                  JOINT LeftHand
                  {
                    OFFSET 24.5451 1.52588e-005 0
                    CHANNELS 3 Zrotation Xrotation Yrotation
                    End Site
                    {
                      OFFSET 0 0 0
                    }
                  }
                }
              }
            }
            JOINT Neck
            {
              OFFSET 5.0226 -0.0266342 0
              CHANNELS 3 Zrotation Xrotation Yrotation
              JOINT Head
              {
                OFFSET 6.69363 2.86102e-005 0
                CHANNELS 3 Zrotation Xrotation Yrotation
                End Site
                {
                  OFFSET 0 0 0
                }
              }
            }
          }
        }
      }
    }
  }
}
MOTION
Frames:	12
Frame Time:	0.0416667
-230.618 91.3294 -254.6 -98.8197 44.674 -83.7826 -170.683 -6.48307 96.6584 -45.0388 34.4259 1.56029 52.7511 -4.21297 0.195077 50.5898 19.4303 11.3962 174.761 20.8461 93.1446 -38.0451 -2.62306 0.52528 66.9538 -3.55286 -1.94275 28.7888 -0.0175475 0.214172 -0.873296 7.79803 -89.9077 11.2809 -1.69483 0.353525 -0.38901 -1.67761 0.427775 -22.9329 -1.7227 -0.172336 -2.92025 -1.7227 -0.172341 93.9783 -48.5728 -94.9332 21.9083 2.44035 17.9127 -9.42175 -19.0645 -36.0063 -5.30061 -0.881484 7.25976 -93.7854 -46.684 72.1551 -15.7472 2.63351 3.7409 13.0571 5.83426 -57.3946 14.6727 1.12513 3.71262 8.07843 8.22206 -4.26549 -0.652607 9.22276 10.0791 
-225.521 91.3827 -248.244 -98.299 40.6035 -84.5918 -170.784 -7.73989 96.0196 -38.79 32.4686 1.73788 61.4201 3.32736 5.15084 53.0087 20.0707 4.91508 173.617 22.9095 91.3739 -31.2989 -1.37087 1.31763 59.9853 -0.98986 -0.518287 24.7414 -0.19725 0.00903326 -1.22803 7.96326 -89.8952 10.9523 -2.39631 0.435965 -0.716572 -2.37477 0.541046 -23.2693 -2.41646 -0.30481 -3.25667 -2.41648 -0.304818 94.2862 -51.1604 -94.0506 21.9831 2.7565 19.29 -2.60652 -8.08326 -31.9946 -11.1127 -1.2538 7.17583 -93.8901 -45.0319 71.4951 -14.4769 2.76591 -1.32744 11.0127 6.57214 -52.0553 16.1961 1.45006 5.02845 8.13115 7.32129 -6.39151 -0.136453 8.83949 11.6632 
-218.785 92.0181 -241.289 -95.7535 42.4221 -89.4737 -170.526 -3.5538 90.6156 -33.5688 20.5896 -2.1218 66.4 7.54252 6.96721 49.5696 16.4152 1.04754 174.151 23.1425 88.3563 -14.0456 -6.90168 0.16318 46.2991 3.21435 2.95626 25.8746 0.15618 -3.35844 -1.02226 7.96648 -89.5068 10.9501 -1.80681 1.15255 -0.720205 -1.75436 1.23095 -23.2642 -2.06965 0.556073 -3.25153 -2.06966 0.556073 93.8971 -52.3672 -94.4556 23.0627 1.00145 17.5768 0.436044 -5.95589 -30.8254 -10.6595 -0.988184 5.15647 -93.9976 -43.8674 70.965 -14.8859 3.17504 -3.31238 9.26589 6.51669 -48.459 16.7863 1.18846 3.19771 8.75344 6.68783 -7.51214 1.08608 8.56554 11.3962 
-213.883 93.4259 -234.844 -96.8588 45.9464 -88.4229 -170.876 -1.85639 88.5559 -29.14 17.4449 -3.41909 68.6918 8.91965 6.31684 39.2565 8.36192 2.90965 175.025 21.1478 87.8431 -11.657 -13.1145 -1.22556 47.0376 3.20477 2.89446 38.7664 0.374968 -6.37868 -0.554648 8.14145 -89.5023 10.5943 -0.875789 1.06725 -1.0768 -0.827974 1.10475 -23.6123 -1.15605 0.754715 -3.59963 -1.15605 0.754704 93.4383 -52.8799 -95.0619 23.006 -1.31181 15.8221 -2.30592 -11.9288 -35.8939 -8.12007 -0.85364 5.1557 -93.8458 -44.0596 71.2645 -16.3597 5.83375 -0.969081 8.56566 6.5919 -48.0289 16.3701 1.19986 3.44064 8.69669 6.63103 -6.6672 2.2073 8.4088 10.605 
-209.073 94.9573 -229.491 -98.8084 47.8183 -84.8782 -170.782 0.419828 90.27 -27.1698 15.0943 -3.22028 66.2308 5.83567 4.55288 37.6436 7.01337 2.30882 177.49 20.4982 88.7001 -27.7092 -8.03374 -2.99899 54.745 0.019446 0.190409 38.3331 0.311292 -8.6945 -0.239536 8.2387 -89.7249 10.3972 -0.35112 0.57775 -1.27384 -0.325375 0.592636 -23.8088 -0.508526 0.445515 -3.79615 -0.508522 0.445515 92.594 -52.302 -96.4225 22.9695 -4.05684 13.3578 -5.67638 -18.6239 -41.9298 -5.65126 -0.720756 4.48294 -93.7855 -44.7102 71.5614 -19.3966 8.93501 4.1137 8.21149 7.64622 -46.3485 15.2522 1.16966 3.74617 8.088 6.77457 -6.34413 2.22816 8.47431 10.8095 
-204.591 96.1448 -225.224 -98.5071 47.5421 -84.6595 -171.058 3.01701 89.7568 -22.5183 15.87 -3.29388 62.1513 2.58075 5.81257 37.4754 6.82183 -0.60032 177.454 18.9587 87.8778 -43.3273 -2.77555 -3.63077 55.3569 -0.369456 -0.0671921 44.451 0.134287 -9.06689 -0.207305 8.05231 -89.8049 10.7697 -0.322848 0.417912 -0.901261 -0.304138 0.431705 -23.4364 -0.43353 0.30156 -3.42379 -0.433513 0.301561 92.5959 -50.4917 -96.7444 23.6799 -7.00118 9.90125 -8.82717 -22.3956 -47.8008 -7.22875 -0.751042 2.75502 -93.9907 -45.0209 71.336 -23.9865 11.827 9.9469 6.40054 9.00812 -41.0271 13.2699 0.905226 2.86136 6.81108 6.90993 -5.32906 2.23619 8.34102 10.272 
-199.836 96.2959 -221.121 -98.1269 46.9352 -84.6605 -170.92 6.36996 90.1216 -20.7444 14.959 -3.57129 61.9585 2.10317 3.87033 31.4613 2.09595 0.313915 176.808 15.1939 86.9904 -54.2807 0.22664 -3.73756 57.1104 -1.31592 -0.729643 37.7344 0.356203 -6.56135 -0.0426451 7.89182 -89.8481 11.0902 -0.0142951 0.30375 -0.58082 -0.000924098 0.304079 -23.1157 -0.104948 0.28541 -3.10307 -0.104947 0.285404 93.2167 -49.8212 -95.9085 23.4062 -8.40729 6.42093 -13.5269 -22.8948 -54.3698 -7.85885 -0.726881 1.76956 -94.1509 -44.9763 71.0725 -28.0758 14.2598 14.1695 4.58499 11.83 -34.6134 10.0781 0.659774 2.50032 6.9665 6.10545 -4.81691 1.40219 7.34906 9.41105 
-194.853 95.1402 -217.31 -96.5342 47.6161 -86.2824 -171.119 11.7161 89.6265 -21.6009 15.3271 -3.91527 62.6985 3.10354 4.93799 26.9995 -1.57934 1.32071 177.498 10.6034 85.9722 -59.4706 -6.14435 -5.13186 52.0913 0.624596 0.653719 42.8502 0.249414 -7.74247 0.350358 7.69399 -89.7624 11.485 0.808204 0.390212 -0.185735 0.824586 0.35426 -22.7219 0.65358 0.615077 -2.70925 0.653552 0.61506 93.2087 -48.2262 -96.2033 23.729 -8.23111 3.29964 -17.4876 -21.4108 -60.2614 -5.09869 -0.568605 0.371677 -93.5633 -44.4061 71.8165 -31.3821 15.4298 16.4048 3.9006 17.6066 -28.7545 9.84658 0.659264 2.62263 8.22431 5.1605 -4.57537 -0.291203 6.27597 9.14437 
-189.147 93.7983 -213.231 -95.1937 48.5881 -88.4061 -171.22 18.1149 88.8725 -23.5483 12.9372 -3.94991 60.5904 1.49376 3.10915 27.6824 -1.04592 1.41216 177.968 4.4788 85.167 -57.8993 -15.6005 -7.43286 50.5522 1.88796 1.59859 47.9035 0.0400589 -8.71973 0.781996 7.61039 -89.6019 11.6491 1.74221 0.613024 -0.0208206 1.76749 0.535733 -22.5619 1.47742 1.10837 -2.54926 1.47743 1.10837 92.7269 -46.6972 -97.2585 22.6647 -7.54722 -0.768106 -20.823 -21.5136 -63.5123 -4.59442 -0.585927 0.421649 -93.2044 -45.4759 72.6972 -32.0984 13.0135 18.8974 3.53446 17.6672 -26.0081 12.6194 0.915384 3.2543 9.721 4.03412 -3.54519 -1.19357 4.90919 7.90623 
-182.741 92.8268 -208.335 -94.6064 51.222 -88.5281 -171.37 22.613 89.9713 -21.401 10.2575 -3.48285 57.2687 -1.26042 0.626769 34.806 4.68468 4.04413 178.846 -1.60261 86.1296 -49.0403 -20.5602 -10.0881 57.4074 -0.414823 -0.185678 54.9438 0.624435 -4.40138 1.30244 7.67573 -89.6289 11.5187 2.76475 0.456773 -0.149334 2.78218 0.334546 -22.7038 2.49958 1.26705 -2.69117 2.49959 1.26704 91.7466 -44.1389 -99.3984 22.1386 -6.16616 -5.20399 -22.3448 -22.3874 -62.9954 -5.52993 -0.627756 0.576537 -93.2561 -47.6322 73.2339 -31.053 10.7175 19.851 2.99457 14.1245 -25.4754 15.6363 1.23332 3.97091 10.0588 3.27728 -0.991891 -0.55658 3.6246 5.61139 
-175.692 92.4982 -202.595 -94.0472 52.4515 -86.9763 -171.572 24.086 92.215 -14.055 9.0197 -3.00207 60.9756 2.04448 1.76983 37.9435 7.38942 6.44936 176.279 -3.32885 87.5122 -38.6313 -18.6269 -7.12244 74.4394 -7.18848 -3.5016 43.0968 0.527629 -3.08837 1.49206 7.85113 -89.8772 11.1756 3.02675 -0.0518116 -0.491808 3.02154 -0.185101 -23.0537 2.90228 0.861032 -3.04101 2.90226 0.861029 91.2233 -42.6141 -100.631 20.503 -4.95384 -10.4904 -21.4503 -24.0186 -60.5837 -5.58539 -0.69344 1.59033 -94.219 -50.2027 72.5154 -30.1641 7.74947 19.6259 4.04622 10.5326 -27.3103 13.2156 0.985722 3.48083 10.6482 3.36826 1.2168 0.402499 3.25883 4.48158 
-169.046 93.1216 -197.088 -94.6275 51.5318 -85.0574 -171.248 22.3143 93.401 -6.58503 5.71366 -3.04779 62.0185 2.59472 2.26244 38.667 8.11314 8.60355 176.037 -1.24771 90.0827 -33.2367 -11.4332 -4.17115 75.8411 -7.55997 -3.54466 42.7371 0.553429 -2.34848 1.41962 8.09948 -90.1031 10.6832 2.77967 -0.456507 -0.984945 2.7569 -0.578494 -23.5438 2.78826 0.400673 -3.53113 2.78826 0.400669 90.7151 -41.7115 -101.721 19.6867 -4.03105 -10.733 -20.4769 -23.7996 -59.6054 -7.26676 -0.811252 2.67083 -94.9336 -51.0068 71.6967 -30.5453 7.25894 17.1238 4.01499 8.98658 -29.5637 17.2307 1.46533 4.69186 11.5157 3.50225 1.68629 0.945593 3.32504 4.97274 
